<svg width="20" height="20" viewBox="0 0 20 20" fill="none" xmlns="http://www.w3.org/2000/svg">
<path d="M16.2211 17.6431C16.6981 16.7396 17.1627 15.7065 17.4613 14.6623C17.8722 13.2247 18.0207 11.8751 18.0629 10.8451L16.5105 9.29265L10.7073 3.48944L9.15487 1.93701C8.12481 1.97917 6.77531 2.12767 5.33767 2.53865C4.29348 2.83716 3.26037 3.30183 2.35693 3.77885C0.100984 4.96998 -0.572793 7.71071 0.497162 9.80685L0.510208 9.83241L1.20923 10.9815C3.15002 14.1718 5.82804 16.8499 9.01835 18.7907L10.1675 19.4898L10.1931 19.5028C12.2892 20.5728 15.0299 19.899 16.2211 17.6431Z" fill="#2D5328"/>
<path d="M19.7747 1.31343C20.0751 1.01296 20.0751 0.525814 19.7747 0.225349C19.4742 -0.0751164 18.987 -0.0751163 18.6866 0.225349L17.0118 1.90018C15.3118 0.665694 12.9941 0.66575 11.2942 1.9002L12.4027 3.00866L16.9915 7.59749L18.0999 8.70595C19.3344 7.00597 19.3343 4.68821 18.0998 2.98826L19.7747 1.31343Z" fill="#2D5328"/>
</svg>
