<svg width="18" height="18" viewBox="0 0 18 18" fill="none" xmlns="http://www.w3.org/2000/svg">
<g opacity="0.5">
<path d="M4.87501 13.5L4.87501 13.4329C4.87493 12.7837 4.87486 12.1884 4.93996 11.7042C5.01165 11.171 5.18032 10.6074 5.64386 10.1439C6.10739 9.68032 6.67098 9.51165 7.2042 9.43996C7.68842 9.37486 8.28366 9.37493 8.93289 9.375H9.06713C9.71636 9.37493 10.3116 9.37486 10.7958 9.43996C11.329 9.51165 11.8926 9.68032 12.3562 10.1439C12.8197 10.6074 12.9884 11.171 13.0601 11.7042C13.1242 12.1813 13.1251 12.7661 13.125 13.4042C15.0545 12.9915 16.5 11.295 16.5 9.26471C16.5 7.41084 15.2947 5.83518 13.6163 5.26123C13.3778 3.14528 11.5619 1.5 9.35714 1.5C6.99021 1.5 5.07143 3.39621 5.07143 5.73529C5.07143 6.25265 5.1653 6.74835 5.33712 7.20665C5.13562 7.16755 4.92738 7.14706 4.71429 7.14706C2.93908 7.14706 1.5 8.56921 1.5 10.3235C1.5 12.0778 2.93908 13.5 4.71429 13.5L4.87501 13.5Z" fill="#1C274C"/>
</g>
<path fill-rule="evenodd" clip-rule="evenodd" d="M9 10.5C7.58579 10.5 6.87868 10.5 6.43934 10.9393C6 11.3787 6 12.0858 6 13.5C6 14.9142 6 15.6213 6.43934 16.0607C6.87868 16.5 7.58579 16.5 9 16.5C10.4142 16.5 11.1213 16.5 11.5607 16.0607C12 15.6213 12 14.9142 12 13.5C12 12.0858 12 11.3787 11.5607 10.9393C11.1213 10.5 10.4142 10.5 9 10.5ZM10.3536 12.8131L9.35355 11.8131C9.15829 11.6179 8.84171 11.6179 8.64645 11.8131L7.64645 12.8131C7.45118 13.0084 7.45118 13.325 7.64645 13.5202C7.84171 13.7155 8.15829 13.7155 8.35355 13.5202L8.5 13.3738V14.8333C8.5 15.1095 8.72386 15.3333 9 15.3333C9.27614 15.3333 9.5 15.1095 9.5 14.8333V13.3738L9.64645 13.5202C9.84171 13.7155 10.1583 13.7155 10.3536 13.5202C10.5488 13.325 10.5488 13.0084 10.3536 12.8131Z" fill="#8A8A8A"/>
</svg>
