<svg width="20" height="20" viewBox="0 0 20 20" fill="none" xmlns="http://www.w3.org/2000/svg">
<circle cx="10" cy="10" r="10" fill="#E54848"/>
<path d="M10.3122 4.8335C10.3122 4.66091 10.1723 4.521 9.99967 4.521C9.82709 4.521 9.68717 4.66091 9.68717 4.8335V6.0835C9.68717 6.25609 9.82709 6.396 9.99967 6.396C10.1723 6.396 10.3122 6.25609 10.3122 6.0835V4.8335Z" fill="white"/>
<path fill-rule="evenodd" clip-rule="evenodd" d="M5.83301 12.8543H6.66634V10.6668C6.66634 8.82588 8.15873 7.3335 9.99967 7.3335C11.8406 7.3335 13.333 8.82588 13.333 10.6668V12.8543H14.1663C14.3389 12.8543 14.4788 12.9942 14.4788 13.1668C14.4788 13.3394 14.3389 13.4793 14.1663 13.4793H5.83301C5.66042 13.4793 5.52051 13.3394 5.52051 13.1668C5.52051 12.9942 5.66042 12.8543 5.83301 12.8543ZM10.3122 11.8332C10.499 11.7252 10.6247 11.5232 10.6247 11.2918C10.6247 10.9467 10.3449 10.6668 9.99967 10.6668C9.6545 10.6668 9.37467 10.9467 9.37467 11.2918C9.37467 11.5232 9.50036 11.7252 9.68717 11.8332V12.8543H10.3122V11.8332ZM10.6644 8.67457C10.7292 8.5146 10.9113 8.4374 11.0713 8.50216C11.5676 8.70303 11.9634 9.09885 12.1642 9.59509C12.229 9.75507 12.1518 9.93726 11.9918 10.002C11.8319 10.0668 11.6497 9.98958 11.5849 9.8296C11.4475 9.49026 11.1762 9.21886 10.8368 9.0815C10.6768 9.01674 10.5996 8.83455 10.6644 8.67457Z" fill="white"/>
<path d="M13.9706 6.27919C14.0927 6.40123 14.0927 6.59909 13.9706 6.72113L13.3456 7.34613C13.2236 7.46817 13.0257 7.46817 12.9037 7.34613C12.7817 7.22409 12.7817 7.02623 12.9037 6.90419L13.5287 6.27919C13.6507 6.15715 13.8486 6.15715 13.9706 6.27919Z" fill="white"/>
<path d="M6.47065 6.27919C6.34861 6.15715 6.15074 6.15715 6.0287 6.27919C5.90666 6.40123 5.90666 6.59909 6.0287 6.72113L6.6537 7.34613C6.77574 7.46817 6.97361 7.46817 7.09565 7.34613C7.21768 7.22409 7.21768 7.02623 7.09565 6.90419L6.47065 6.27919Z" fill="white"/>
</svg>
