<svg width="22" height="22" viewBox="0 0 22 22" fill="none" xmlns="http://www.w3.org/2000/svg">
<path d="M3.17592 18.8239C4.51835 20.1663 6.67895 20.1663 11.0002 20.1663C15.3214 20.1663 17.482 20.1663 18.8244 18.8239C20.1668 17.4815 20.1668 15.3209 20.1668 10.9997C20.1668 10.6867 20.1668 10.5302 20.1529 10.371C20.0882 9.62916 19.7873 8.90286 19.3085 8.33248C19.2058 8.21013 19.0925 8.09675 18.8657 7.86997L14.1299 3.13416C13.9031 2.90739 13.7897 2.79399 13.6674 2.69129C13.097 2.2125 12.3707 1.91166 11.6288 1.8469C11.4697 1.83301 11.3132 1.83301 11.0002 1.83301C6.67895 1.83301 4.51835 1.83301 3.17592 3.17544C1.8335 4.51786 1.8335 6.67847 1.8335 10.9997C1.8335 15.3209 1.8335 17.4815 3.17592 18.8239Z" stroke="#34672E" stroke-width="1.5"/>
<path d="M15.5832 20.1663V19.2497C15.5832 17.5212 15.5832 16.6569 15.0462 16.12C14.5092 15.583 13.645 15.583 11.9165 15.583H10.0832C8.35469 15.583 7.49045 15.583 6.95347 16.12C6.4165 16.6569 6.4165 17.5212 6.4165 19.2497V20.1663" stroke="#34672E" stroke-width="1.5"/>
<path d="M6.4165 7.33301H11.9165" stroke="#34672E" stroke-width="1.5" stroke-linecap="round"/>
</svg>
