<svg width="18" height="18" viewBox="0 0 18 18" fill="none" xmlns="http://www.w3.org/2000/svg">
<path d="M11.5447 3.04024L11.043 3.59771L11.043 3.59771L11.5447 3.04024ZM14.5138 5.71241L14.0121 6.26988L14.0121 6.26988L14.5138 5.71241ZM16.2405 7.61557L15.5554 7.9207L15.5554 7.9207L16.2405 7.61557ZM2.37868 15.6213L2.90901 15.091L2.90901 15.091L2.37868 15.6213ZM15.6213 15.6213L15.091 15.091L15.091 15.091L15.6213 15.6213ZM10.5 16.5V15.75H7.5V16.5V17.25H10.5V16.5ZM1.5 10.5H2.25V7.5H1.5H0.75V10.5H1.5ZM16.5 10.1722H15.75V10.5H16.5H17.25V10.1722H16.5ZM11.5447 3.04024L11.043 3.59771L14.0121 6.26988L14.5138 5.71241L15.0155 5.15494L12.0464 2.48276L11.5447 3.04024ZM16.5 10.1722H17.25C17.25 8.92247 17.2651 8.07278 16.9256 7.31044L16.2405 7.61557L15.5554 7.9207C15.7349 8.32371 15.75 8.78997 15.75 10.1722H16.5ZM14.5138 5.71241L14.0121 6.26988C15.0394 7.19452 15.3759 7.51769 15.5554 7.9207L16.2405 7.61557L16.9256 7.31044C16.5861 6.54811 15.9444 5.99095 15.0155 5.15494L14.5138 5.71241ZM7.52234 1.5V2.25C8.72289 2.25 9.12918 2.26158 9.48822 2.39935L9.75692 1.69914L10.0256 0.998923C9.34676 0.738421 8.6093 0.75 7.52234 0.75V1.5ZM11.5447 3.04024L12.0464 2.48276C11.2424 1.75914 10.7044 1.25938 10.0256 0.998923L9.75692 1.69914L9.48822 2.39935C9.84736 2.53717 10.1552 2.79872 11.043 3.59771L11.5447 3.04024ZM7.5 16.5V15.75C6.06458 15.75 5.06347 15.7484 4.30812 15.6469C3.57435 15.5482 3.18577 15.3678 2.90901 15.091L2.37868 15.6213L1.84835 16.1516C2.45027 16.7536 3.20814 17.0125 4.10825 17.1335C4.98678 17.2516 6.10699 17.25 7.5 17.25V16.5ZM1.5 10.5H0.75C0.75 11.893 0.748407 13.0132 0.866523 13.8918C0.987539 14.7919 1.24643 15.5497 1.84835 16.1517L2.37868 15.6213L2.90901 15.091C2.63225 14.8142 2.4518 14.4257 2.35315 13.6919C2.25159 12.9365 2.25 11.9354 2.25 10.5H1.5ZM10.5 16.5V17.25C11.893 17.25 13.0132 17.2516 13.8918 17.1335C14.7919 17.0125 15.5497 16.7536 16.1517 16.1516L15.6213 15.6213L15.091 15.091C14.8142 15.3678 14.4257 15.5482 13.6919 15.6469C12.9365 15.7484 11.9354 15.75 10.5 15.75V16.5ZM16.5 10.5H15.75C15.75 11.9354 15.7484 12.9365 15.6469 13.6919C15.5482 14.4257 15.3678 14.8142 15.091 15.091L15.6213 15.6213L16.1516 16.1517C16.7536 15.5497 17.0125 14.7919 17.1335 13.8918C17.2516 13.0132 17.25 11.893 17.25 10.5H16.5ZM1.5 7.5H2.25C2.25 6.06458 2.25159 5.06347 2.35315 4.30812C2.4518 3.57434 2.63225 3.18577 2.90901 2.90901L2.37868 2.37868L1.84835 1.84835C1.24643 2.45027 0.987539 3.20814 0.866523 4.10825C0.748407 4.98678 0.75 6.10699 0.75 7.5H1.5ZM7.52234 1.5V0.75C6.12181 0.75 4.99627 0.748421 4.11428 0.866463C3.21128 0.987317 2.45085 1.24585 1.84835 1.84835L2.37868 2.37868L2.90901 2.90901C3.18519 2.63283 3.57493 2.45202 4.31326 2.35321C5.0726 2.25158 6.07955 2.25 7.52234 2.25V1.5Z" fill="#3E8336"/>
<path d="M9.75 1.875V3.75C9.75 5.51777 9.75 6.40165 10.2992 6.95083C10.8483 7.5 11.7322 7.5 13.5 7.5H16.5" stroke="#3E8336" stroke-width="1.5"/>
<path d="M6.375 10.125L6.375 13.875M6.375 13.875L7.875 12.4688M6.375 13.875L4.875 12.4688" stroke="#3E8336" stroke-width="1.5" stroke-linecap="round" stroke-linejoin="round"/>
</svg>
