<svg width="16" height="16" viewBox="0 0 16 16" fill="none" xmlns="http://www.w3.org/2000/svg">
<path d="M1.57572 8.63825C1.32276 6.88022 1.19628 6.0012 1.55659 5.24964C1.91689 4.49808 2.6838 4.04123 4.21762 3.12755L5.14084 2.57759C6.5337 1.74787 7.23013 1.33301 7.99967 1.33301C8.76921 1.33301 9.46565 1.74787 10.8585 2.57759L11.7817 3.12755C13.3155 4.04123 14.0825 4.49808 14.4428 5.24964C14.8031 6.0012 14.6766 6.88022 14.4236 8.63826L14.2378 9.92983C13.9128 12.1881 13.7504 13.3173 12.967 13.9918C12.1836 14.6663 11.0348 14.6663 8.73706 14.6663H7.26229C4.96459 14.6663 3.81574 14.6663 3.03236 13.9918C2.24898 13.3173 2.08651 12.1881 1.76157 9.92982L1.57572 8.63825Z" fill="#34672E"/>
<path d="M5.19111 7.27618L6.45869 5.56115C7.27805 4.45256 7.68773 3.89827 8.06996 4.0154C8.45219 4.13254 8.45219 4.81238 8.45219 6.17206V6.30026C8.45219 6.79067 8.45219 7.03588 8.60889 7.18968L8.61718 7.19765C8.77726 7.34821 9.03247 7.34821 9.54288 7.34821C10.4614 7.34821 10.9206 7.34821 11.0759 7.62677C11.0784 7.63139 11.0809 7.63603 11.0834 7.64072C11.2299 7.9236 10.964 8.28337 10.4321 9.00291L9.16455 10.7179C8.34517 11.8265 7.93548 12.3808 7.55325 12.2637C7.17103 12.1465 7.17104 11.4667 7.17106 10.107L7.17106 9.97883C7.17106 9.48842 7.17107 9.24321 7.01437 9.0894L7.00608 9.08144C6.846 8.93088 6.59079 8.93088 6.08037 8.93088C5.16186 8.93088 4.70261 8.93088 4.5474 8.65231C4.54483 8.6477 4.54233 8.64305 4.5399 8.63837C4.39338 8.35549 4.65929 7.99572 5.19111 7.27618Z" fill="white"/>
</svg>
