<svg width="21" height="21" viewBox="0 0 21 21" fill="none" xmlns="http://www.w3.org/2000/svg">
<path fill-rule="evenodd" clip-rule="evenodd" d="M16 14C14.7574 14 13.75 15.0074 13.75 16.25C13.75 17.4926 14.7574 18.5 16 18.5C17.2426 18.5 18.25 17.4926 18.25 16.25C18.25 15.0074 17.2426 14 16 14ZM12.25 16.25C12.25 14.1789 13.9289 12.5 16 12.5C18.0711 12.5 19.75 14.1789 19.75 16.25C19.75 17.0143 19.5213 17.7252 19.1287 18.318L20.5303 19.7197C20.8232 20.0126 20.8232 20.4874 20.5303 20.7803C20.2374 21.0732 19.7626 21.0732 19.4697 20.7803L18.068 19.3787C17.4752 19.7713 16.7643 20 16 20C13.9289 20 12.25 18.3211 12.25 16.25Z" fill="#13698B"/>
<path d="M5.75 0.75C5.75 0.335786 5.41421 0 5 0C4.58579 0 4.25 0.335786 4.25 0.75V2.32926C2.81067 2.44451 1.86577 2.72737 1.17157 3.42157C0.477375 4.11577 0.194513 5.06067 0.0792572 6.5H19.9207C19.8055 5.06067 19.5226 4.11577 18.8284 3.42157C18.1342 2.72737 17.1893 2.44451 15.75 2.32926V0.75C15.75 0.335786 15.4142 0 15 0C14.5858 0 14.25 0.335786 14.25 0.75V2.2629C13.5847 2.25 12.839 2.25 12 2.25H8C7.16097 2.25 6.41527 2.25 5.75 2.2629V0.75Z" fill="#13698B"/>
<path d="M20 10.25V12.25C20 12.4553 20 12.655 19.9998 12.8492C19.0368 11.7177 17.6022 11 16 11C13.1005 11 10.75 13.3505 10.75 16.25C10.75 17.8522 11.4677 19.2868 12.5992 20.2498C12.405 20.25 12.2053 20.25 12 20.25H8C4.22876 20.25 2.34315 20.25 1.17157 19.0784C0 17.9069 0 16.0212 0 12.25V10.25C0 9.41096 0 8.66527 0.012902 8H19.9871C20 8.66527 20 9.41096 20 10.25Z" fill="#13698B"/>
</svg>
