<svg width="24" height="24" viewBox="0 0 24 24" fill="none" xmlns="http://www.w3.org/2000/svg">
<path fill-rule="evenodd" clip-rule="evenodd" d="M7.87488 12.0001C7.87488 12.4143 8.21067 12.7501 8.62488 12.7501L19.5974 12.7501L17.6368 14.4307C17.3223 14.7002 17.2859 15.1737 17.5554 15.4882C17.825 15.8027 18.2985 15.8391 18.613 15.5696L22.113 12.5696C22.2792 12.4271 22.3749 12.2191 22.3749 12.0001C22.3749 11.7812 22.2792 11.5732 22.113 11.4307L18.613 8.43068C18.2985 8.16111 17.825 8.19753 17.5554 8.51203C17.2859 8.82652 17.3223 9.3 17.6368 9.56957L19.5974 11.2501L8.62488 11.2501C8.21067 11.2501 7.87488 11.5859 7.87488 12.0001Z" fill="#254522"/>
<path d="M14.6249 16.0001C14.6249 15.2979 14.6249 14.9468 14.4564 14.6946C14.3834 14.5854 14.2896 14.4916 14.1804 14.4187C13.9282 14.2502 13.5771 14.2502 12.8749 14.2502L8.62488 14.2502C7.38224 14.2502 6.37488 13.2428 6.37488 12.0002C6.37488 10.7575 7.38224 9.75016 8.62488 9.75016L12.8748 9.75016C13.5771 9.75016 13.9282 9.75016 14.1805 9.58161C14.2896 9.50866 14.3834 9.41493 14.4563 9.30576C14.6249 9.05353 14.6249 8.70239 14.6249 8.00012C14.6249 5.1717 14.6249 3.75748 13.7462 2.8788C12.8675 2.00012 11.4535 2.00012 8.6251 2.00012L7.6251 2.00012C4.79667 2.00012 3.38246 2.00012 2.50378 2.8788C1.6251 3.75748 1.6251 5.1717 1.6251 8.00012L1.6251 16.0001C1.6251 18.8285 1.6251 20.2428 2.50378 21.1214C3.38246 22.0001 4.79667 22.0001 7.6251 22.0001L8.6251 22.0001C11.4535 22.0001 12.8675 22.0001 13.7462 21.1214C14.6249 20.2428 14.6249 18.8285 14.6249 16.0001Z" fill="#254522"/>
</svg>
