<svg width="20" height="20" viewBox="0 0 20 20" fill="none" xmlns="http://www.w3.org/2000/svg">
<path fill-rule="evenodd" clip-rule="evenodd" d="M10 0C4.47715 0 0 4.47715 0 10C0 15.5228 4.47715 20 10 20C15.5228 20 20 15.5228 20 10C20 4.47715 15.5228 0 10 0ZM9.22741 6.56904L7.21236 8.1737C6.36695 8.84693 5.94424 9.18356 6.02675 9.5594L6.03114 9.57801C6.12514 9.95154 6.66096 10.0951 7.73259 10.3823C8.3281 10.5418 8.62585 10.6216 8.76555 10.8473L8.77273 10.8592C8.90747 11.0876 8.83081 11.3737 8.67749 11.9459L8.63743 12.0954C8.21234 13.6818 7.99979 14.4749 8.40912 14.7311C8.81845 14.9872 9.46972 14.4686 10.7723 13.4314L12.7873 11.8267C13.6327 11.1535 14.0554 10.8169 13.9729 10.441L13.9686 10.4224C13.8745 10.0489 13.3387 9.90532 12.2671 9.61818C11.6716 9.45862 11.3738 9.37883 11.2341 9.15314L11.227 9.14125C11.0922 8.91282 11.1689 8.62673 11.3222 8.05457L11.3623 7.905C11.7873 6.31864 11.9999 5.52547 11.5905 5.26931C11.1812 5.01316 10.5299 5.53179 9.22741 6.56904Z" fill="#F68B34"/>
</svg>
