<svg width="20" height="20" viewBox="0 0 20 20" fill="none" xmlns="http://www.w3.org/2000/svg">
<path d="M0 10.124C0 4.53269 4.47713 0 9.99995 0C15.5228 0 19.9999 4.53269 19.9999 10.124L19.9999 15.3675C20.0002 16.1844 20.0004 16.7446 19.8568 17.2364C19.576 18.1982 18.9046 18.9937 18.01 19.4245C17.5525 19.6449 17.0059 19.732 16.2088 19.8591L16.0789 19.8799C15.7954 19.9252 15.5532 19.9639 15.3522 19.9839C15.1431 20.0047 14.9299 20.0111 14.7118 19.9676C13.9942 19.8245 13.4024 19.3126 13.1508 18.6172C13.0744 18.4059 13.0474 18.1916 13.035 17.9793C13.0232 17.7753 13.0232 17.527 13.0232 17.2365L13.0231 13.0641C13.0226 12.6386 13.0222 12.2725 13.1195 11.959C13.3422 11.2416 13.9238 10.6975 14.6477 10.5292C14.9641 10.4556 15.3246 10.4849 15.7435 10.5189L15.8367 10.5264L15.9465 10.5352C16.7302 10.5975 17.2664 10.6402 17.7216 10.8106C18.0415 10.9304 18.3381 11.0953 18.6046 11.2976V10.124C18.6046 5.31288 14.7521 1.41266 9.99995 1.41266C5.24776 1.41266 1.39534 5.31288 1.39534 10.124V11.2976C1.66176 11.0953 1.95843 10.9304 2.27829 10.8106C2.73345 10.6402 3.26965 10.5975 4.05335 10.5352L4.16318 10.5264L4.25641 10.5189C4.67534 10.4849 5.03581 10.4556 5.35224 10.5292C6.07612 10.6975 6.65766 11.2416 6.88039 11.959C6.97774 12.2725 6.9773 12.6386 6.97678 13.0641L6.97671 17.2365C6.97671 17.527 6.97672 17.7753 6.96487 17.9793C6.95254 18.1916 6.9255 18.4059 6.84906 18.6172C6.59754 19.3126 6.00574 19.8245 5.28812 19.9676C5.07001 20.0111 4.85675 20.0047 4.64768 19.9839C4.44671 19.9639 4.20449 19.9252 3.92102 19.8799L3.79106 19.8591C2.99399 19.732 2.44737 19.6449 1.98991 19.4245C1.09534 18.9937 0.423879 18.1982 0.143078 17.2364C0.024671 16.8309 0.00403702 16.3788 0.00060436 15.7747L0 15.5803V10.124Z" fill="#5B138B"/>
</svg>
