<svg width="22" height="22" viewBox="0 0 22 22" fill="none" xmlns="http://www.w3.org/2000/svg">
<path d="M2.75 9.16634C2.75 5.70937 2.75 3.98089 3.82394 2.90695C4.89788 1.83301 6.62637 1.83301 10.0833 1.83301H11.9167C15.3736 1.83301 17.1021 1.83301 18.1761 2.90695C19.25 3.98089 19.25 5.70937 19.25 9.16634V12.833C19.25 16.29 19.25 18.0185 18.1761 19.0924C17.1021 20.1663 15.3736 20.1663 11.9167 20.1663H10.0833C6.62637 20.1663 4.89788 20.1663 3.82394 19.0924C2.75 18.0185 2.75 16.29 2.75 12.833V9.16634Z" stroke="#34672E" stroke-width="1.5"/>
<path d="M8.70801 14.2087V14.0941C8.70801 13.6511 9.06711 13.292 9.51009 13.292H12.4893C12.9322 13.292 13.2913 13.6511 13.2913 14.0941V14.2087C13.2913 15.4743 12.2653 16.5003 10.9997 16.5003C9.73402 16.5003 8.70801 15.4743 8.70801 14.2087Z" stroke="#34672E" stroke-width="1.5" stroke-linecap="round"/>
<path d="M8.70801 2.74967C8.70801 2.31755 8.70801 2.10149 8.84225 1.96725C8.97649 1.83301 9.19255 1.83301 9.62467 1.83301H10.083C10.5151 1.83301 10.7312 1.83301 10.8654 1.96725C10.9997 2.10149 10.9997 2.31755 10.9997 2.74967V3.20801C10.9997 3.64013 10.9997 3.85619 10.8654 3.99043C10.7312 4.12467 10.5151 4.12467 10.083 4.12467H9.62467C9.19255 4.12467 8.97649 4.12467 8.84225 3.99043C8.70801 3.85619 8.70801 3.64013 8.70801 3.20801V2.74967Z" stroke="#34672E" stroke-width="1.5"/>
<path d="M8.70801 7.33366C8.70801 6.90154 8.70801 6.68548 8.84225 6.55123C8.97649 6.41699 9.19255 6.41699 9.62467 6.41699H10.083C10.5151 6.41699 10.7312 6.41699 10.8654 6.55123C10.9997 6.68548 10.9997 6.90154 10.9997 7.33366V7.79199C10.9997 8.22411 10.9997 8.44017 10.8654 8.57442C10.7312 8.70866 10.5151 8.70866 10.083 8.70866H9.62467C9.19255 8.70866 8.97649 8.70866 8.84225 8.57442C8.70801 8.44017 8.70801 8.22411 8.70801 7.79199V7.33366Z" stroke="#34672E" stroke-width="1.5"/>
<path d="M11 5.04167C11 4.60955 11 4.39349 11.1342 4.25924C11.2685 4.125 11.4845 4.125 11.9167 4.125H12.375C12.8071 4.125 13.0232 4.125 13.1574 4.25924C13.2917 4.39349 13.2917 4.60955 13.2917 5.04167V5.5C13.2917 5.93212 13.2917 6.14818 13.1574 6.28242C13.0232 6.41667 12.8071 6.41667 12.375 6.41667H11.9167C11.4845 6.41667 11.2685 6.41667 11.1342 6.28242C11 6.14818 11 5.93212 11 5.5V5.04167Z" stroke="#34672E" stroke-width="1.5"/>
<path d="M11 9.62467C11 9.19255 11 8.97649 11.1342 8.84225C11.2685 8.70801 11.4845 8.70801 11.9167 8.70801H12.375C12.8071 8.70801 13.0232 8.70801 13.1574 8.84225C13.2917 8.97649 13.2917 9.19255 13.2917 9.62467V10.083C13.2917 10.5151 13.2917 10.7312 13.1574 10.8654C13.0232 10.9997 12.8071 10.9997 12.375 10.9997H11.9167C11.4845 10.9997 11.2685 10.9997 11.1342 10.8654C11 10.7312 11 10.5151 11 10.083V9.62467Z" stroke="#34672E" stroke-width="1.5"/>
</svg>
